HIERARCHY
ROOT Hips
{
	OFFSET 0.000000 103.266502 0.000000
	CHANNELS 6 Xposition Yposition Zposition Xrotation Yrotation Zrotation 
	JOINT Spine
	{
		OFFSET -0.002400 12.777504 0.315300
		CHANNELS 3 Xrotation Yrotation Zrotation
		JOINT Spine1
		{
			OFFSET -0.002067 5.816869 0.032633
			CHANNELS 3 Xrotation Yrotation Zrotation
			JOINT Spine1_split
			{
				OFFSET -0.002067 5.816869 0.032633
				CHANNELS 3 Xrotation Yrotation Zrotation
				JOINT Spine2
				{
					OFFSET -0.002067 5.816869 0.032633
					CHANNELS 3 Xrotation Yrotation Zrotation
					JOINT Neck
					{
						OFFSET -0.003700 21.199493 -0.826900
						CHANNELS 3 Xrotation Yrotation Zrotation
						JOINT Head
						{
							OFFSET 0.000000 20.442200 4.834800
							CHANNELS 3 Xrotation Yrotation Zrotation
							JOINT HeadTop_End
							{
								OFFSET 0.000000 34.668396 4.968400
								CHANNELS 3 Xrotation Yrotation Zrotation
								End Site
								{
									OFFSET 0.000000 0.000000 0.000000
								}
							}
						}
					}
					JOINT LeftShoulder
					{
						OFFSET 3.288150 8.794197 -1.372250
						CHANNELS 3 Xrotation Yrotation Zrotation
						JOINT LeftShoulder_split
						{
							OFFSET 3.288150 8.794197 -1.372250
							CHANNELS 3 Xrotation Yrotation Zrotation
							JOINT LeftArm
							{
								OFFSET 11.953299 -2.279007 -0.146200
								CHANNELS 3 Xrotation Yrotation Zrotation
								JOINT LeftForeArm
								{
									OFFSET 18.448900 0.000000 0.000000
									CHANNELS 3 Xrotation Yrotation Zrotation
									JOINT LeftHand
									{
										OFFSET 29.527798 0.000000 0.000000
										CHANNELS 3 Xrotation Yrotation Zrotation
										JOINT LeftHandThumb1
										{
											OFFSET 10.739754 -2.369614 9.225399
											CHANNELS 3 Xrotation Yrotation Zrotation
											JOINT LeftHandThumb2
											{
												OFFSET 4.926170 -2.844131 2.844125
												CHANNELS 3 Xrotation Yrotation Zrotation
												JOINT LeftHandThumb3
												{
													OFFSET 4.614891 -2.664413 2.664409
													CHANNELS 3 Xrotation Yrotation Zrotation
													JOINT LeftHandThumb4
													{
														OFFSET 4.432465 -2.559082 2.559083
														CHANNELS 3 Xrotation Yrotation Zrotation
														End Site
														{
															OFFSET 0.000000 0.000000 0.000000
														}
													}
												}
											}
										}
										JOINT LeftHandIndex1
										{
											OFFSET 26.467674 0.187653 6.405298
											CHANNELS 3 Xrotation Yrotation Zrotation
											JOINT LeftHandIndex2
											{
												OFFSET 8.792900 0.000000 0.000000
												CHANNELS 3 Xrotation Yrotation Zrotation
												JOINT LeftHandIndex3
												{
													OFFSET 10.075203 0.000000 0.000000
													CHANNELS 3 Xrotation Yrotation Zrotation
													End Site
													{
														OFFSET 0.000000 0.000000 0.000000
													}
												}
											}
										}
										JOINT LeftHandMiddle1
										{
											OFFSET 25.764404 0.000000 0.000000
											CHANNELS 3 Xrotation Yrotation Zrotation
											JOINT LeftHandMiddle2
											{
												OFFSET 9.393974 0.000000 0.000000
												CHANNELS 3 Xrotation Yrotation Zrotation
												JOINT LeftHandMiddle3
												{
													OFFSET 10.771950 0.000000 0.000000
													CHANNELS 3 Xrotation Yrotation Zrotation
													End Site
													{
														OFFSET 0.000000 0.000000 0.000000
													}
												}
											}
										}
										JOINT LeftHandRing1
										{
											OFFSET 24.660927 0.144547 -6.225808
											CHANNELS 3 Xrotation Yrotation Zrotation
											JOINT LeftHandRing2
											{
												OFFSET 9.393799 0.000000 0.000000
												CHANNELS 3 Xrotation Yrotation Zrotation
												JOINT LeftHandRing3
												{
													OFFSET 9.928497 0.000000 0.000000
													CHANNELS 3 Xrotation Yrotation Zrotation
													End Site
													{
														OFFSET 0.000000 0.000000 0.000000
													}
												}
											}
										}
										JOINT LeftHandPinky1
										{
											OFFSET 23.655350 0.125290 -12.815412
											CHANNELS 3 Xrotation Yrotation Zrotation
											JOINT LeftHandPinky2
											{
												OFFSET 8.425102 0.000000 0.000000
												CHANNELS 3 Xrotation Yrotation Zrotation
												JOINT LeftHandPinky3
												{
													OFFSET 8.147003 0.000000 0.000000
													CHANNELS 3 Xrotation Yrotation Zrotation
													End Site
													{
														OFFSET 0.000000 0.000000 0.000000
													}
												}
											}
										}
									}
								}
							}
						}
					}
					JOINT RightShoulder
					{
						OFFSET -3.249400 8.794197 -1.372250
						CHANNELS 3 Xrotation Yrotation Zrotation
						JOINT RightShoulder_split
						{
							OFFSET -3.249400 8.794197 -1.372250
							CHANNELS 3 Xrotation Yrotation Zrotation
							JOINT RightArm
							{
								OFFSET -11.953299 -2.279007 -0.146200
								CHANNELS 3 Xrotation Yrotation Zrotation
								JOINT RightForeArm
								{
									OFFSET -18.448900 0.000000 0.000000
									CHANNELS 3 Xrotation Yrotation Zrotation
									JOINT RightHand
									{
										OFFSET -29.527802 0.000000 0.000000
										CHANNELS 3 Xrotation Yrotation Zrotation
										JOINT RightHandThumb1
										{
											OFFSET -10.739754 -2.369614 9.225399
											CHANNELS 3 Xrotation Yrotation Zrotation
											JOINT RightHandThumb2
											{
												OFFSET -4.926170 -2.844131 2.844125
												CHANNELS 3 Xrotation Yrotation Zrotation
												JOINT RightHandThumb3
												{
													OFFSET -4.614891 -2.664413 2.664409
													CHANNELS 3 Xrotation Yrotation Zrotation
													JOINT RightHandThumb4
													{
														OFFSET -4.432465 -2.559082 2.559083
														CHANNELS 3 Xrotation Yrotation Zrotation
														End Site
														{
															OFFSET 0.000000 0.000000 0.000000
														}
													}
												}
											}
										}
										JOINT RightHandIndex1
										{
											OFFSET -26.467674 0.187653 6.405298
											CHANNELS 3 Xrotation Yrotation Zrotation
											JOINT RightHandIndex2
											{
												OFFSET -8.792900 0.000000 0.000000
												CHANNELS 3 Xrotation Yrotation Zrotation
												JOINT RightHandIndex3
												{
													OFFSET -10.075203 0.000000 0.000000
													CHANNELS 3 Xrotation Yrotation Zrotation
													End Site
													{
														OFFSET 0.000000 0.000000 0.000000
													}
												}
											}
										}
										JOINT RightHandMiddle1
										{
											OFFSET -25.764404 0.000000 0.000000
											CHANNELS 3 Xrotation Yrotation Zrotation
											JOINT RightHandMiddle2
											{
												OFFSET -9.393974 0.000000 0.000000
												CHANNELS 3 Xrotation Yrotation Zrotation
												JOINT RightHandMiddle3
												{
													OFFSET -10.771950 0.000000 0.000000
													CHANNELS 3 Xrotation Yrotation Zrotation
													End Site
													{
														OFFSET 0.000000 0.000000 0.000000
													}
												}
											}
										}
										JOINT RightHandRing1
										{
											OFFSET -24.660927 0.144547 -6.225808
											CHANNELS 3 Xrotation Yrotation Zrotation
											JOINT RightHandRing2
											{
												OFFSET -9.393799 0.000000 0.000000
												CHANNELS 3 Xrotation Yrotation Zrotation
												JOINT RightHandRing3
												{
													OFFSET -9.928497 0.000000 0.000000
													CHANNELS 3 Xrotation Yrotation Zrotation
													End Site
													{
														OFFSET 0.000000 0.000000 0.000000
													}
												}
											}
										}
										JOINT RightHandPinky1
										{
											OFFSET -23.655350 0.125290 -12.815412
											CHANNELS 3 Xrotation Yrotation Zrotation
											JOINT RightHandPinky2
											{
												OFFSET -8.425102 0.000000 0.000000
												CHANNELS 3 Xrotation Yrotation Zrotation
												JOINT RightHandPinky3
												{
													OFFSET -8.147003 0.000000 0.000000
													CHANNELS 3 Xrotation Yrotation Zrotation
													End Site
													{
														OFFSET 0.000000 0.000000 0.000000
													}
												}
											}
										}
									}
								}
							}
						}
					}
				}
			}
		}
	}
	JOINT LeftUpLeg
	{
		OFFSET 11.394100 -6.187798 -0.413800
		CHANNELS 3 Xrotation Yrotation Zrotation
		JOINT LeftLeg
		{
			OFFSET 0.430247 -32.302673 3.732800
			CHANNELS 3 Xrotation Yrotation Zrotation
			JOINT LeftFoot
			{
				OFFSET -0.430247 -48.264931 -6.423300
				CHANNELS 3 Xrotation Yrotation Zrotation
				JOINT LeftToeBase
				{
					OFFSET 4.230900 -16.068199 23.438400
					CHANNELS 3 Xrotation Yrotation Zrotation
					JOINT LeftToe_End
					{
						OFFSET 4.510700 0.695400 19.974600
						CHANNELS 3 Xrotation Yrotation Zrotation
						End Site
						{
							OFFSET 0.000000 0.000000 0.000000
						}
					}
				}
			}
		}
	}
	JOINT RightUpLeg
	{
		OFFSET -11.333700 -6.187798 -0.413800
		CHANNELS 3 Xrotation Yrotation Zrotation
		JOINT RightLeg
		{
			OFFSET -0.430392 -32.302628 3.733000
			CHANNELS 3 Xrotation Yrotation Zrotation
			JOINT RightFoot
			{
				OFFSET 0.430392 -48.264973 -6.423500
				CHANNELS 3 Xrotation Yrotation Zrotation
				JOINT RightToeBase
				{
					OFFSET -4.230900 -16.068199 23.438400
					CHANNELS 3 Xrotation Yrotation Zrotation
					JOINT RightToe_End
					{
						OFFSET -4.510700 0.695400 19.974600
						CHANNELS 3 Xrotation Yrotation Zrotation
						End Site
						{
							OFFSET 0.000000 0.000000 0.000000
						}
					}
				}
			}
		}
	}
}
MOTION
Frames: 4
Frame Time: 0.016667
-0.073812 85.293709 -0.143901 -5.064989 -42.553930 0.275068 9.457941 7.226621 -1.662789 2.187716 0.989897 -0.914785 0.000000 0.000000 0.000000 2.202830 0.982764 -0.893558 0.084653 13.220555 4.538678 8.920923 20.138135 -4.130233 0.000001 0.000000 -0.000001 1.117176 3.546354 -8.633310 0.000000 0.000000 0.000000 -53.487030 4.935510 -51.502987 0.000109 -106.358073 0.000110 1.988601 -7.706136 -15.869229 -6.141212 -11.690800 -6.761699 9.914101 42.595519 3.409862 -0.422804 8.108111 27.509115 0.000002 -0.000001 0.000000 0.255319 3.378224 -45.814354 5.654095 5.847754 -88.067469 0.000000 0.000001 0.000000 -0.461475 3.841594 -39.722690 6.450750 5.820359 -95.892851 0.000001 0.000000 -0.000001 0.469726 4.966833 -39.799444 8.181043 5.368612 -113.502991 0.000002 -0.000000 -0.000000 -3.762425 9.063701 -45.253818 5.342520 5.829003 -85.005304 -0.000000 0.000000 -0.000001 3.036123 13.027203 -5.371406 0.000000 0.000000 0.000000 -48.713732 27.172832 83.457091 -0.000003 105.988294 0.000005 -8.345384 17.548081 8.775696 -7.341088 13.749669 7.412319 9.855771 -44.489100 -3.903261 -0.115782 -14.513075 -28.973874 0.000004 -0.000002 0.000000 -0.124370 -2.384787 45.108871 4.500588 -4.654547 88.071178 0.000000 -0.000000 0.000000 -0.761624 -2.932902 39.031055 5.133890 -4.632759 95.881656 -0.000001 0.000001 0.000001 0.154762 -4.068812 39.122661 6.509723 -4.273594 113.462850 0.000000 -0.000002 -0.000000 -4.198880 -8.025519 44.637759 4.252920 -4.639639 85.014798 -0.000000 0.000001 0.000001 -38.947248 5.286943 17.881970 58.824103 -5.658647 4.385020 -17.445029 -8.501395 -15.885034 -1.594206 0.000015 0.000003 -0.000000 -0.000003 -0.000000 -29.994574 -7.144701 -28.960415 58.895184 -10.017888 -7.808259 -19.902087 -5.245080 22.366330 -1.421723 -0.000014 -0.000002 -0.000000 -0.000001 0.000000 
-0.074069 85.319977 -0.114418 -4.994551 -42.541632 0.223824 9.439975 7.271750 -1.674971 2.175733 1.007913 -0.914784 0.000000 0.000000 0.000000 2.190583 1.000778 -0.893562 0.049151 13.241672 4.506403 8.795706 20.178667 -4.038379 -0.000001 -0.000000 0.000000 1.060113 3.401046 -8.204988 0.000000 0.000000 0.000000 -53.252642 4.575425 -50.958942 0.000262 -106.452275 0.000264 2.080125 -7.637609 -15.690649 -6.141214 -11.690801 -6.761706 9.914101 42.595519 3.409863 -0.422798 8.108107 27.509116 -0.000003 0.000002 -0.000001 0.255315 3.378221 -45.814358 5.654094 5.847754 -88.067469 -0.000002 0.000001 0.000000 -0.461476 3.841588 -39.722686 6.450748 5.820361 -95.892851 -0.000001 0.000000 0.000001 0.469724 4.966829 -39.799444 8.181041 5.368610 -113.502991 0.000000 -0.000000 0.000001 -3.762425 9.063699 -45.253818 5.342520 5.829005 -85.005311 0.000001 -0.000000 0.000001 2.992700 12.851426 -5.316451 0.000000 0.000000 0.000000 -49.165655 27.692712 83.232576 0.000048 105.878020 -0.000065 -8.322223 17.530736 8.373420 -7.341087 13.749669 7.412316 9.855767 -44.489100 -3.903258 -0.115784 -14.513073 -28.973874 0.000002 0.000001 0.000000 -0.124368 -2.384785 45.108868 4.500592 -4.654548 88.071178 0.000000 -0.000000 -0.000001 -0.761621 -2.932901 39.031055 5.133887 -4.632761 95.881663 0.000000 -0.000000 0.000001 0.154762 -4.068814 39.122658 6.509720 -4.273593 113.462850 -0.000000 -0.000002 -0.000000 -4.198878 -8.025518 44.637762 4.252918 -4.639640 85.014798 -0.000002 -0.000000 0.000001 -38.977195 5.237069 18.113703 58.763218 -5.491986 4.207648 -17.455356 -8.694356 -15.887233 -1.594206 0.000010 0.000003 -0.000000 0.000002 -0.000000 -30.065099 -7.393290 -29.028038 58.809479 -9.769414 -7.773747 -19.901052 -5.239627 22.236743 -1.421724 -0.000015 -0.000003 -0.000000 -0.000001 -0.000000 
-0.079603 85.356766 -0.066407 -4.919889 -42.560825 0.178237 9.414115 7.287459 -1.692770 2.160459 1.014514 -0.917776 0.000000 0.000000 0.000000 2.175228 1.007286 -0.896830 -0.002262 13.274977 4.469521 8.607462 20.275408 -3.937010 0.000000 -0.000000 -0.000000 1.001847 3.254857 -7.754999 0.000000 0.000000 0.000000 -53.008948 4.373917 -50.549287 -0.000059 -106.685629 -0.000038 2.320289 -7.487229 -15.637255 -6.141214 -11.690802 -6.761703 9.914103 42.595515 3.409871 -0.422801 8.108112 27.509116 -0.000000 0.000001 -0.000000 0.255319 3.378220 -45.814358 5.654097 5.847754 -88.067469 0.000002 -0.000000 0.000001 -0.461476 3.841593 -39.722690 6.450748 5.820358 -95.892851 0.000002 -0.000001 -0.000001 0.469725 4.966829 -39.799444 8.181039 5.368610 -113.502991 0.000000 0.000001 -0.000001 -3.762424 9.063698 -45.253825 5.342518 5.829004 -85.005304 0.000001 -0.000001 -0.000000 2.949116 12.677385 -5.252451 0.000000 0.000000 0.000000 -49.612698 28.281045 83.025867 -0.000004 105.788668 0.000009 -8.265617 17.517729 7.916574 -7.341087 13.749669 7.412318 9.855764 -44.489100 -3.903255 -0.115782 -14.513073 -28.973871 -0.000002 -0.000002 -0.000001 -0.124367 -2.384785 45.108871 4.500591 -4.654547 88.071178 0.000000 -0.000001 -0.000001 -0.761621 -2.932902 39.031058 5.133891 -4.632759 95.881656 0.000001 -0.000002 0.000002 0.154764 -4.068813 39.122661 6.509721 -4.273594 113.462850 0.000000 -0.000001 -0.000000 -4.198878 -8.025519 44.637769 4.252919 -4.639639 85.014798 0.000001 0.000000 0.000001 -39.004912 5.228258 18.356536 58.725488 -5.585251 4.032659 -17.454405 -8.751663 -15.793561 -1.594206 0.000015 0.000003 0.000000 -0.000002 -0.000000 -30.074624 -7.552918 -29.108494 58.710899 -9.530832 -7.645905 -19.897301 -5.233794 22.086376 -1.421723 -0.000016 -0.000003 -0.000000 0.000001 0.000000 
-0.084877 85.406143 0.004075 -4.838161 -42.628549 0.146133 9.378692 7.278285 -1.719776 2.140902 1.011715 -0.925598 0.000000 0.000000 0.000000 2.155734 1.004235 -0.904947 -0.072023 13.322214 4.429951 8.331901 20.440828 -3.819017 -0.000000 0.000000 0.000001 0.942417 3.109340 -7.280550 0.000000 0.000000 0.000000 -52.751819 4.313194 -50.243411 0.000061 -107.038770 0.000051 2.688492 -7.265124 -15.676438 -6.141214 -11.690803 -6.761701 9.914098 42.595512 3.409866 -0.422803 8.108108 27.509116 -0.000001 -0.000001 0.000000 0.255317 3.378219 -45.814358 5.654094 5.847754 -88.067469 0.000000 0.000000 0.000001 -0.461475 3.841590 -39.722697 6.450749 5.820359 -95.892851 -0.000000 -0.000002 0.000001 0.469724 4.966829 -39.799444 8.181043 5.368612 -113.502991 0.000000 0.000000 -0.000001 -3.762424 9.063699 -45.253821 5.342518 5.829005 -85.005304 0.000000 -0.000001 -0.000000 2.906333 12.509036 -5.180290 0.000000 0.000000 0.000000 -50.050643 28.941393 82.820797 0.000175 105.714260 -0.000165 -8.193988 17.536263 7.412583 -7.341088 13.749667 7.412320 9.855762 -44.489096 -3.903255 -0.115778 -14.513078 -28.973871 -0.000001 -0.000002 0.000000 -0.124368 -2.384788 45.108868 4.500590 -4.654547 88.071178 0.000001 0.000000 0.000000 -0.761621 -2.932902 39.031055 5.133889 -4.632762 95.881656 -0.000000 -0.000001 0.000003 0.154763 -4.068814 39.122664 6.509722 -4.273593 113.462850 0.000000 -0.000000 0.000000 -4.198876 -8.025516 44.637762 4.252920 -4.639639 85.014798 -0.000001 -0.000001 0.000001 -39.000886 5.280476 18.599814 58.671619 -5.790317 3.854747 -17.460426 -8.687758 -15.642250 -1.594206 0.000015 0.000003 -0.000000 -0.000002 -0.000000 -30.027851 -7.612732 -29.191084 58.595667 -9.208572 -7.427837 -19.880160 -5.317037 21.892829 -1.421723 -0.000016 -0.000003 0.000000 -0.000000 0.000000 
